<svg xmlns="http://www.w3.org/2000/svg" xmlns:xlink="http://www.w3.org/1999/xlink" width="951" zoomAndPan="magnify" viewBox="0 0 713.25 713.249996" height="951" preserveAspectRatio="xMidYMid meet" version="1.2"><defs><clipPath id="185f652938"><path d="M 389 16 L 712.5 16 L 712.5 371 L 389 371 Z M 389 16 "/></clipPath><clipPath id="a8617f3087"><path d="M 341 389 L 696 389 L 696 712.5 L 341 712.5 Z M 341 389 "/></clipPath><clipPath id="3d17b7693c"><path d="M 389 16 L 712.5 16 L 712.5 371 L 389 371 Z M 389 16 "/></clipPath><clipPath id="2b1f22e44b"><path d="M 382.226562 389 L 696 389 L 696 705.757812 L 382.226562 705.757812 Z M 382.226562 389 "/></clipPath><clipPath id="8a922f46e8"><path d="M 341 554.417969 L 603.597656 554.417969 L 603.597656 705.757812 L 341 705.757812 Z M 341 554.417969 "/></clipPath></defs><g id="8a28026ebd"><g clip-rule="nonzero" clip-path="url(#185f652938)"><path style=" stroke:none;fill-rule:nonzero;fill:#3edad8;fill-opacity:1;" d="M 693.777344 307.648438 C 689.660156 278.695312 681.839844 250.484375 670.367188 223.363281 C 653.195312 182.746094 628.609375 146.269531 597.292969 114.960938 C 565.984375 83.644531 529.511719 59.0625 488.890625 41.878906 C 457.019531 28.394531 423.644531 19.964844 389.324219 16.660156 L 402.042969 37.808594 L 389.324219 51.832031 C 526.71875 66.648438 636.851562 172.382812 658.375 307.648438 L 639.820312 307.648438 L 676.039062 370.382812 L 712.257812 307.648438 L 693.777344 307.648438 "/></g><path style=" stroke:none;fill-rule:nonzero;fill:#3edad8;fill-opacity:1;" d="M 307.648438 18.480469 C 278.703125 22.59375 250.488281 30.414062 223.363281 41.886719 C 182.746094 59.0625 146.277344 83.644531 114.964844 114.960938 C 83.652344 146.269531 59.066406 182.746094 41.886719 223.363281 C 28.402344 255.234375 19.964844 288.609375 16.660156 322.929688 L 37.808594 310.214844 L 51.835938 322.929688 C 66.65625 185.535156 172.382812 75.402344 307.648438 53.871094 L 307.648438 72.4375 L 370.390625 36.214844 L 307.648438 -0.00390625 L 307.648438 18.480469 "/><path style=" stroke:none;fill-rule:nonzero;fill:#3edad8;fill-opacity:1;" d="M 18.480469 404.609375 C 22.59375 433.558594 30.410156 461.769531 41.886719 488.894531 C 59.066406 529.511719 83.652344 565.980469 114.960938 597.292969 C 146.273438 628.605469 182.742188 653.1875 223.363281 670.371094 C 255.234375 683.855469 288.605469 692.292969 322.929688 695.597656 L 310.214844 674.449219 L 322.929688 660.421875 C 185.539062 645.601562 75.402344 539.875 53.878906 404.609375 L 72.4375 404.609375 L 36.214844 341.871094 L -0.00390625 404.609375 L 18.480469 404.609375 "/><g clip-rule="nonzero" clip-path="url(#a8617f3087)"><path style=" stroke:none;fill-rule:nonzero;fill:#3edad8;fill-opacity:1;" d="M 404.605469 693.773438 C 433.558594 689.660156 461.773438 681.839844 488.894531 670.367188 C 529.515625 653.1875 565.984375 628.601562 597.292969 597.289062 C 628.601562 565.976562 653.191406 529.511719 670.375 488.890625 C 683.859375 457.011719 692.296875 423.640625 695.597656 389.320312 L 674.449219 402.039062 L 660.425781 389.320312 C 645.601562 526.710938 539.875 636.847656 404.605469 658.375 L 404.605469 639.8125 L 341.871094 676.035156 L 404.605469 712.253906 L 404.605469 693.773438 "/></g><g clip-rule="nonzero" clip-path="url(#3d17b7693c)"><path style=" stroke:none;fill-rule:nonzero;fill:#2c92d5;fill-opacity:1;" d="M 693.777344 307.648438 C 689.660156 278.695312 681.839844 250.484375 670.367188 223.363281 C 653.195312 182.746094 628.609375 146.269531 597.292969 114.960938 C 565.984375 83.644531 529.511719 59.0625 488.890625 41.878906 C 457.019531 28.394531 423.644531 19.964844 389.324219 16.660156 L 402.042969 37.808594 L 389.324219 51.832031 C 526.71875 66.648438 636.851562 172.382812 658.375 307.648438 L 639.820312 307.648438 L 676.039062 370.382812 L 712.257812 307.648438 L 693.777344 307.648438 "/></g><g clip-rule="nonzero" clip-path="url(#2b1f22e44b)"><path style=" stroke:none;fill-rule:nonzero;fill:#2c92d5;fill-opacity:1;" d="M 404.605469 693.773438 C 433.558594 689.660156 461.773438 681.839844 488.894531 670.367188 C 529.515625 653.1875 565.984375 628.601562 597.292969 597.289062 C 628.601562 565.976562 653.191406 529.511719 670.375 488.890625 C 683.859375 457.011719 692.296875 423.640625 695.597656 389.320312 L 674.449219 402.039062 L 660.425781 389.320312 C 645.601562 526.710938 539.875 636.847656 404.605469 658.375 L 404.605469 639.8125 L 341.871094 676.035156 L 404.605469 712.253906 L 404.605469 693.773438 "/></g><g clip-rule="nonzero" clip-path="url(#8a922f46e8)"><path style=" stroke:none;fill-rule:nonzero;fill:#2c92d5;fill-opacity:1;" d="M 403.820312 691.644531 C 432.769531 687.53125 460.984375 679.710938 488.105469 668.238281 C 528.726562 651.058594 565.195312 626.472656 596.503906 595.160156 C 627.8125 563.847656 652.402344 527.378906 669.585938 486.761719 C 683.070312 454.882812 691.507812 421.511719 694.808594 387.191406 L 673.660156 399.910156 L 659.636719 387.191406 C 644.8125 524.582031 539.089844 634.71875 403.820312 656.246094 L 403.820312 637.683594 L 341.082031 673.90625 L 403.820312 710.125 L 403.820312 691.644531 "/></g></g></svg>